<mxfile host="Electron" modified="2023-12-18T07:45:26.948Z" agent="Mozilla/5.0 (Windows NT 10.0; Win64; x64) AppleWebKit/537.36 (KHTML, like Gecko) draw.io/21.6.5 Chrome/114.0.5735.243 Electron/25.3.1 Safari/537.36" etag="EHUIReyJZupJnjeZsX58" version="21.6.5" type="device">
  <diagram name="第 1 页" id="MaitGPI-S_txmcD9HwoG">
    <mxGraphModel dx="439" dy="328" grid="1" gridSize="10" guides="1" tooltips="1" connect="1" arrows="1" fold="1" page="1" pageScale="1" pageWidth="827" pageHeight="1169" math="1" shadow="0">
      <root>
        <mxCell id="0" />
        <mxCell id="jPiYd9RU20gvULt59Yll-2" value="坐标轴" parent="0" />
        <mxCell id="8UdL5ykclIeKqm7qH8z4-0" value="" style="endArrow=classic;html=1;rounded=0;fontFamily=Times New Roman;" parent="jPiYd9RU20gvULt59Yll-2" edge="1">
          <mxGeometry width="50" height="50" relative="1" as="geometry">
            <mxPoint x="280" y="440" as="sourcePoint" />
            <mxPoint x="460" y="440" as="targetPoint" />
          </mxGeometry>
        </mxCell>
        <mxCell id="d7znKjdg1P3a72jGB6Vq-0" value="$$P$$" style="text;html=1;align=center;verticalAlign=middle;resizable=0;points=[];autosize=1;strokeColor=none;fillColor=none;fontFamily=Times New Roman;" parent="jPiYd9RU20gvULt59Yll-2" vertex="1">
          <mxGeometry x="266" y="350" width="50" height="30" as="geometry" />
        </mxCell>
        <mxCell id="39KSFym421X66mNpkK7i-1" value="" style="endArrow=classic;html=1;rounded=0;fontFamily=Times New Roman;" edge="1" parent="jPiYd9RU20gvULt59Yll-2">
          <mxGeometry width="50" height="50" relative="1" as="geometry">
            <mxPoint x="280" y="440" as="sourcePoint" />
            <mxPoint x="280" y="310" as="targetPoint" />
          </mxGeometry>
        </mxCell>
        <mxCell id="jPiYd9RU20gvULt59Yll-3" value="图线" parent="0" />
        <mxCell id="8UdL5ykclIeKqm7qH8z4-3" value="" style="endArrow=classic;html=1;rounded=0;fontFamily=Times New Roman;entryX=0.62;entryY=0.833;entryDx=0;entryDy=0;entryPerimeter=0;" parent="jPiYd9RU20gvULt59Yll-3" edge="1">
          <mxGeometry width="50" height="50" relative="1" as="geometry">
            <mxPoint x="280" y="440" as="sourcePoint" />
            <mxPoint x="380" y="329.99" as="targetPoint" />
          </mxGeometry>
        </mxCell>
        <mxCell id="39KSFym421X66mNpkK7i-4" value="" style="endArrow=classic;html=1;rounded=0;fontFamily=Times New Roman;exitX=0.68;exitY=0.333;exitDx=0;exitDy=0;exitPerimeter=0;" edge="1" parent="jPiYd9RU20gvULt59Yll-3">
          <mxGeometry width="50" height="50" relative="1" as="geometry">
            <mxPoint x="280" y="440" as="sourcePoint" />
            <mxPoint x="300" y="370" as="targetPoint" />
          </mxGeometry>
        </mxCell>
        <mxCell id="39KSFym421X66mNpkK7i-5" value="" style="endArrow=none;html=1;rounded=0;fontFamily=Times New Roman;exitX=0.68;exitY=0.333;exitDx=0;exitDy=0;exitPerimeter=0;endFill=0;" edge="1" parent="jPiYd9RU20gvULt59Yll-3">
          <mxGeometry width="50" height="50" relative="1" as="geometry">
            <mxPoint x="360" y="400" as="sourcePoint" />
            <mxPoint x="380" y="330" as="targetPoint" />
          </mxGeometry>
        </mxCell>
        <mxCell id="39KSFym421X66mNpkK7i-6" value="" style="endArrow=none;html=1;rounded=0;fontFamily=Times New Roman;exitX=0.68;exitY=0.333;exitDx=0;exitDy=0;exitPerimeter=0;endFill=0;" edge="1" parent="jPiYd9RU20gvULt59Yll-3">
          <mxGeometry width="50" height="50" relative="1" as="geometry">
            <mxPoint x="300" y="370" as="sourcePoint" />
            <mxPoint x="380" y="330" as="targetPoint" />
          </mxGeometry>
        </mxCell>
        <mxCell id="39KSFym421X66mNpkK7i-8" value="$$z_1$$" style="text;html=1;align=center;verticalAlign=middle;resizable=0;points=[];autosize=1;strokeColor=none;fillColor=none;fontFamily=Times New Roman;" vertex="1" parent="jPiYd9RU20gvULt59Yll-3">
          <mxGeometry x="271" y="380" width="60" height="30" as="geometry" />
        </mxCell>
        <mxCell id="39KSFym421X66mNpkK7i-9" value="$$z_2$$" style="text;html=1;align=center;verticalAlign=middle;resizable=0;points=[];autosize=1;strokeColor=none;fillColor=none;fontFamily=Times New Roman;" vertex="1" parent="jPiYd9RU20gvULt59Yll-3">
          <mxGeometry x="300" y="408" width="60" height="30" as="geometry" />
        </mxCell>
        <mxCell id="39KSFym421X66mNpkK7i-10" value="$$z_1+z_2$$" style="text;html=1;align=center;verticalAlign=middle;resizable=0;points=[];autosize=1;strokeColor=none;fillColor=none;fontFamily=Times New Roman;" vertex="1" parent="jPiYd9RU20gvULt59Yll-3">
          <mxGeometry x="359" y="311" width="90" height="30" as="geometry" />
        </mxCell>
        <mxCell id="39KSFym421X66mNpkK7i-3" value="" style="endArrow=classic;html=1;rounded=0;fontFamily=Times New Roman;exitX=0.68;exitY=0.333;exitDx=0;exitDy=0;exitPerimeter=0;" edge="1" parent="jPiYd9RU20gvULt59Yll-3" source="znfay48kux2PREKNp4i7-12">
          <mxGeometry width="50" height="50" relative="1" as="geometry">
            <mxPoint x="290" y="450" as="sourcePoint" />
            <mxPoint x="360" y="400" as="targetPoint" />
          </mxGeometry>
        </mxCell>
        <mxCell id="39KSFym421X66mNpkK7i-12" value="" style="endArrow=classic;html=1;rounded=0;" edge="1" parent="jPiYd9RU20gvULt59Yll-3">
          <mxGeometry width="50" height="50" relative="1" as="geometry">
            <mxPoint x="360" y="400" as="sourcePoint" />
            <mxPoint x="300" y="370" as="targetPoint" />
          </mxGeometry>
        </mxCell>
        <mxCell id="39KSFym421X66mNpkK7i-13" value="$$z_1-z_2$$" style="text;html=1;align=center;verticalAlign=middle;resizable=0;points=[];autosize=1;strokeColor=none;fillColor=none;fontFamily=Times New Roman;" vertex="1" parent="jPiYd9RU20gvULt59Yll-3">
          <mxGeometry x="340" y="370" width="90" height="30" as="geometry" />
        </mxCell>
        <mxCell id="39KSFym421X66mNpkK7i-17" value="$$M$$" style="text;html=1;align=center;verticalAlign=middle;resizable=0;points=[];autosize=1;strokeColor=none;fillColor=none;fontFamily=Times New Roman;" vertex="1" parent="jPiYd9RU20gvULt59Yll-3">
          <mxGeometry x="339" y="309" width="60" height="30" as="geometry" />
        </mxCell>
        <mxCell id="8UdL5ykclIeKqm7qH8z4-2" value="文本" parent="0" />
        <mxCell id="znfay48kux2PREKNp4i7-4" value="$$x$$" style="text;html=1;align=center;verticalAlign=middle;resizable=0;points=[];autosize=1;strokeColor=none;fillColor=none;fontFamily=Times New Roman;" parent="8UdL5ykclIeKqm7qH8z4-2" vertex="1">
          <mxGeometry x="445" y="414.5" width="50" height="30" as="geometry" />
        </mxCell>
        <mxCell id="znfay48kux2PREKNp4i7-12" value="$$0$$" style="text;html=1;align=center;verticalAlign=middle;resizable=0;points=[];autosize=1;strokeColor=none;fillColor=none;fontFamily=Times New Roman;" parent="8UdL5ykclIeKqm7qH8z4-2" vertex="1">
          <mxGeometry x="246" y="430" width="50" height="30" as="geometry" />
        </mxCell>
        <mxCell id="39KSFym421X66mNpkK7i-2" value="$$y$$" style="text;html=1;align=center;verticalAlign=middle;resizable=0;points=[];autosize=1;strokeColor=none;fillColor=none;fontFamily=Times New Roman;" vertex="1" parent="8UdL5ykclIeKqm7qH8z4-2">
          <mxGeometry x="270" y="290" width="50" height="30" as="geometry" />
        </mxCell>
        <mxCell id="39KSFym421X66mNpkK7i-7" value="$$Q$$" style="text;html=1;align=center;verticalAlign=middle;resizable=0;points=[];autosize=1;strokeColor=none;fillColor=none;fontFamily=Times New Roman;" vertex="1" parent="8UdL5ykclIeKqm7qH8z4-2">
          <mxGeometry x="339" y="390" width="60" height="30" as="geometry" />
        </mxCell>
      </root>
    </mxGraphModel>
  </diagram>
</mxfile>
